<svg xmlns="http://www.w3.org/2000/svg" width="397" height="355" fill="none" fill-rule="evenodd" xmlns:v="https://vecta.io/nano"><g stroke="#bdc1c6"><path d="M384 354c0-61.856-50.368-112-112.5-112S159 292.144 159 354h225zM200 22.373L261.79 1 319 166.626 257.21 188z"/><path d="M48 354h112V242H48z"/></g><path d="M392.227 80.389s15.015 6.978-8.217 25.191c0 0-45.978 31.079-10.683-14.113 11.462-14.675 18.9-11.078 18.9-11.078" fill="#e44335"/><path d="M20.87 270.138c-2.982 2.737-13.751-1.423-18.519-7.128S.86 249.023 5.163 246.072s11.896-3.754 16.74 4.47c4.088 6.944 1.343 17.413-1.033 19.596" fill="#fabb05" style="mix-blend-mode:multiply"/><path d="M217.142 96.612c14.497-5.356 29.932 3.475 34.885 14.119s.429 30.412-11.844 36.277-32.732-1.955-38.115-13.903-.216-30.846 15.074-36.493" fill="#34a253" style="mix-blend-mode:multiply"/><path d="M346.605 224.559c2.598-8.422 10.883-11.518 19.205-8.331s11.096 11.621 7.895 18.305-11.096 9.256-19.846 6.17-8.428-12.341-7.255-16.145" fill="#3e82f7" style="mix-blend-mode:multiply"/></svg>