<svg xmlns="http://www.w3.org/2000/svg" width="389" height="382" fill="none" fill-rule="evenodd" xmlns:v="https://vecta.io/nano"><path d="M286.478 317.37s-12.448-1.249-.272-19.889c0 0 25.31-33.367 11.09 7.376-4.618 13.23-10.818 12.513-10.818 12.513" fill="#34a253" style="mix-blend-mode:multiply"/><g transform="matrix(-1 0 0 1 387 18)"><g stroke="#b7b7b7"><path d="M288 363h98v-98h-98z"/><path d="M190 265h98v-98h-98z"/></g><path d="M23.892 1.577c4.896-.574 9.825-.075 14.556 1.482 8.442 2.778 15.773 10.224 15.228 23.979-.371 9.362-4.869 18.705-10.52 23.458-7.001 5.89-16.567 2.543-23.388-1.513-3.124-1.857-5.675-4.443-8.425-7.109s-5.424-5.63-7.297-9.607c-2.846-6.048-3.102-13.82.464-19.64 3.403-5.553 8.774-8.443 13.638-9.873 1.9-.559 3.819-.951 5.743-1.176" fill="#fabb05" style="mix-blend-mode:multiply"/><path d="M338.52 196.329s-12.353-20.125 1.305-21.488c0 0 28.708 4.311 10.508 24.565-6.192 6.892-11.813-3.078-11.813-3.078" fill="#4280ee" style="mix-blend-mode:multiply"/><path d="M198.645 112.69c-1.523 4.679-6.38 6.399-11.258 4.628s-6.505-6.456-4.629-10.169 6.505-5.142 11.634-3.428 4.941 6.856 4.253 8.97" fill="#e44335" style="mix-blend-mode:multiply"/></g><path d="M322.379 250.708c63.686-37.636 84.928-119.846 47.446-183.62S250.33-17.874 186.643 19.764l135.736 230.944z" stroke="#b7b7b7" style="mix-blend-mode:multiply"/></svg>