<?xml version="1.0" standalone="no"?>
<!DOCTYPE svg PUBLIC "-//W3C//DTD SVG 20010904//EN"
 "http://www.w3.org/TR/2001/REC-SVG-20010904/DTD/svg10.dtd">
<svg version="1.0" xmlns="http://www.w3.org/2000/svg"
 width="197.000000pt" height="197.000000pt" viewBox="0 0 197.000000 197.000000"
 preserveAspectRatio="xMidYMid meet">
<metadata>
Created by potrace 1.11, written by Peter Selinger 2001-2013
</metadata>
<g transform="translate(0.000000,197.000000) scale(0.100000,-0.100000)"
fill="#000000" stroke="none">
<path d="M704 1516 c-117 -27 -249 -97 -362 -194 -49 -42 -142 -154 -142 -172
0 -16 136 -111 225 -156 97 -50 98 -49 15 13 -58 44 -157 140 -149 146 11 9
110 68 159 95 58 32 160 75 166 69 2 -1 -3 -25 -11 -52 -17 -54 -19 -101 -6
-109 5 -3 22 -1 39 5 25 9 30 16 35 54 12 109 127 174 232 131 41 -18 95 -89
95 -127 0 -27 1 -28 63 -45 14 -4 17 1 17 28 -1 18 -7 51 -15 73 -8 21 -13 41
-11 42 12 13 326 -149 326 -167 0 -12 -134 -136 -177 -165 -24 -15 -43 -30
-43 -32 0 -2 39 17 88 42 100 52 222 139 222 158 0 25 -117 153 -191 209 -82
63 -185 117 -269 143 -76 23 -230 28 -306 11z"/>
<path d="M796 1320 c-39 -12 -73 -46 -86 -86 -25 -74 34 -164 107 -164 l35 0
-20 33 c-33 55 -36 73 -10 82 22 8 22 8 -4 12 -16 2 -28 7 -28 9 0 14 32 65
38 60 7 -8 31 46 25 57 -5 9 -19 8 -57 -3z"/>
<path d="M628 1058 c-21 -22 -38 -45 -38 -52 0 -15 41 -121 63 -161 l16 -30 1
52 c0 59 13 76 28 35 6 -15 25 -61 42 -102 17 -41 49 -127 71 -190 21 -63 39
-112 39 -109 0 6 111 335 125 372 6 13 2 17 -15 17 -13 0 -24 8 -27 20 -7 25
-12 25 -30 3 -13 -17 -14 -17 -9 2 3 11 -1 33 -9 49 -8 15 -15 35 -15 42 0 10
-14 14 -47 14 -54 0 -123 28 -144 57 -13 19 -15 19 -51 -19z"/>
<path d="M1092 838 c-31 -87 -30 -88 28 -88 43 0 50 -3 50 -20 0 -16 7 -20 30
-20 23 0 30 4 30 20 0 11 5 20 10 20 6 0 10 7 10 15 0 8 -4 15 -10 15 -5 0
-10 18 -10 41 0 38 -1 40 -27 37 -24 -3 -28 -8 -31 -40 -3 -30 -7 -38 -23 -38
-22 0 -21 10 7 79 18 43 19 41 -14 41 -26 0 -30 -6 -50 -62z"/>
<path d="M1410 891 c0 -6 9 -16 20 -24 11 -8 17 -17 13 -20 -3 -4 -1 -7 5 -7
20 0 13 19 -10 31 -22 12 -22 12 -3 20 19 7 19 8 -2 8 -13 1 -23 -3 -23 -8z"/>
<path d="M1496 884 c-4 -9 -4 -19 -1 -22 3 -3 5 0 5 7 0 6 10 16 23 21 22 9
22 9 1 9 -12 1 -25 -6 -28 -15z"/>
<path d="M1602 870 c0 -19 2 -27 5 -17 2 9 2 25 0 35 -3 9 -5 1 -5 -18z"/>
<path d="M1636 892 c7 -4 14 -18 16 -32 3 -23 4 -22 9 8 5 27 3 32 -15 32 -13
0 -17 -3 -10 -8z"/>
<path d="M1472 860 c0 -14 2 -19 5 -12 2 6 2 18 0 25 -3 6 -5 1 -5 -13z"/>
<path d="M980 783 c0 -29 2 -29 19 5 10 18 9 22 -4 22 -10 0 -15 -9 -15 -27z"/>
<path d="M1281 753 c1 -27 3 -40 6 -30 6 24 30 21 36 -5 4 -12 9 -19 12 -16 4
3 2 15 -4 26 -7 13 -7 22 1 30 17 17 1 42 -27 42 -23 0 -25 -3 -24 -47z m42
31 c9 -10 -4 -34 -19 -34 -8 0 -14 9 -14 20 0 19 19 27 33 14z"/>
<path d="M1367 793 c-10 -10 -8 -83 2 -83 5 0 7 9 4 19 -4 14 1 21 19 24 23 4
23 4 1 6 -13 0 -23 7 -23 15 0 8 10 17 23 19 20 4 20 4 1 6 -11 0 -24 -2 -27
-6z"/>
<path d="M1443 755 c0 -27 2 -40 4 -27 3 13 12 22 23 22 11 0 20 -9 23 -22 2
-13 4 0 4 27 0 28 -2 40 -4 28 -3 -14 -12 -23 -23 -23 -11 0 -20 9 -23 23 -2
12 -4 0 -4 -28z"/>
<path d="M1537 755 c-9 -25 -12 -45 -6 -45 5 0 9 5 9 10 0 6 9 10 20 10 11 0
20 -4 20 -10 0 -5 4 -10 9 -10 12 0 -13 83 -26 87 -6 2 -18 -17 -26 -42z m33
5 c0 -11 -4 -20 -10 -20 -5 0 -10 9 -10 20 0 11 5 20 10 20 6 0 10 -9 10 -20z"/>
<path d="M1620 750 c0 -46 2 -50 24 -50 32 0 36 7 29 58 -5 36 -9 42 -29 42
-22 0 -24 -4 -24 -50z m40 25 c0 -8 -7 -15 -15 -15 -8 0 -15 7 -15 15 0 8 7
15 15 15 8 0 15 -7 15 -15z m5 -45 c0 -8 -8 -16 -17 -18 -13 -2 -18 3 -18 18
0 15 5 20 18 18 9 -2 17 -10 17 -18z"/>
</g>
</svg>
