<svg xmlns="http://www.w3.org/2000/svg" xmlns:xlink="http://www.w3.org/1999/xlink" width="404" height="478" xmlns:v="https://vecta.io/nano"><defs><path id="A" d="M0 0h31v31H0z"/></defs><g transform="translate(0 -10)" fill="none" fill-rule="evenodd"><path d="M107.936 248.716c6.712-2.38 13.858 1.545 16.151 6.275s.199 13.517-5.483 16.123-15.153-.869-17.646-6.179-.099-13.71 6.979-16.22" fill="#3e82f7" style="mix-blend-mode:multiply"/><path d="M373.277 210.264c4.418-2.523 20.567 3.36 25.121 11.466s-1.616 17.23-7.743 19.667-15.842 1.436-19.861-9.722c-3.394-9.422-1.038-19.4 2.483-21.411" fill="#fabb05" style="mix-blend-mode:multiply"/><g stroke="#b7b7b7"><path d="M162.724 332.763c-32.34-32.307-32.34-84.686 0-116.992l117.114 116.992c-32.34 32.307-84.774 32.307-117.114 0zm158.494-8.566c44.947 0 81.384 36.399 81.384 81.3s-36.436 81.3-81.384 81.3-81.384-36.399-81.384-81.3 36.436-81.3 81.384-81.3zM.68 483.944h155.629V328.476H.68z" style="mix-blend-mode:multiply"/><path d="M306.058 11L263 74.836l63.836 43.059 43.057-63.837z"/></g><g style="mix-blend-mode:multiply" transform="translate(329 19)"><mask id="B" fill="#fff"><use xlink:href="#A"/></mask><path d="M9.84.925c8.322-3.074 17.183 1.995 20.027 8.106s.247 17.458-6.799 20.825-18.79-1.122-21.881-7.981S1.063 4.168 9.84.925" fill="#34a253" mask="url(#B)"/></g><path d="M277.797 140.137l3.53-.912c3.182-.744 7.316-1.097 9.966 1.177.977.838 1.534 2.058 1.835 3.294 1.982 8.176-1.161 18.41-8.347 23.305-4.883 3.324-13.605 3.692-16.02-2.602-2.571-6.697-4.062-15.531 2.169-20.809 2.021-1.71 4.388-2.714 6.868-3.453L169 204.379" fill="#e44335" style="mix-blend-mode:multiply"/></g></svg>