<svg xmlns="http://www.w3.org/2000/svg" width="283" height="499" fill="none" fill-rule="evenodd" xmlns:v="https://vecta.io/nano"><path d="M76.003 246.441c3.399 4.629 1.421 11.467-4.588 15.785s-12.506 3.763-15.605-1.113-.76-11.512 4.554-15.603 11.956-4.086 15.64.931" fill="#fabb05" style="mix-blend-mode:multiply"/><path d="M208.182 197.077s-13.779 4.223-19.05-15.649c0 0-4.847-37.148 18.188 1.201 7.837 13.047.862 14.447.862 14.447" fill="#3e82f7" style="mix-blend-mode:multiply"/><g stroke="#9aa0a6"><path d="M95 404.059h93.296V313H95z"/><path d="M1 498h94v-94H1zm234.671-185c25.776 0 46.671 20.38 46.671 45.521s-20.895 45.52-46.671 45.52S189 383.66 189 358.521 209.896 313 235.671 313zM95.492 165.066l17.38-81.767 81.822 17.392"/><path d="M95.576 164.669c45.189 9.605 89.603-19.217 99.202-64.375s-19.252-89.553-64.442-99.159l-34.76 163.533z"/></g><path d="M165.002 26.286c4.3-14.349 18.013-19.623 31.787-14.192s18.366 19.798 13.069 31.187-18.366 15.768-32.847 10.512-13.951-21.025-12.008-27.507" fill="#e44335" style="mix-blend-mode:multiply"/><path d="M122.317 426.253l.133-2.706c.177-2.422.86-5.421 3.137-6.743.839-.487 1.863-.587 2.841-.501 6.469.568 13.284 5.243 15.249 11.485 1.334 4.24-.382 10.476-5.565 10.667-5.513.203-12.354-.87-14.818-6.53-.799-1.836-.997-3.746-.977-5.672" fill="#34a253" style="mix-blend-mode:multiply"/></svg>